<?xml version="1.0" encoding="UTF-8"?><svg id="Complications" xmlns="http://www.w3.org/2000/svg" viewBox="0 0 32 32"><defs><style>.cls-1{fill:#fff;}.cls-2{fill:#d99898;}</style></defs><g id="ic_abortion"><path class="cls-1" d="M16.38,24.7c-6.15-4.38-8.06-8.5-8.39-9.38s-1.17-3.95,.89-5.79c2.24-2.06,6.06-1.1,6.92,1.26,0,0,.19-1.88,2.48-2.82,2.64-1.08,5.48-.29,6.75,1.84s1.59,7.47-8.64,14.89Z"/><path class="cls-2" d="M16.12,23.58c-5.37-3.71-6.93-7.76-7.22-8.51s-1.04-3.42,.75-4.97c1.95-1.73,5.43-.51,5.93,2.34l-.61,2.71,2.04,4.21-.88,4.21Z"/><path class="cls-2" d="M16.49,23.58c8.71-6.37,8.74-11.46,7.63-13.26s-3.54-2.45-5.74-1.35-2.43,3.48-2.43,3.48l-.59,2.67,1.95,4.2-.83,4.27Z"/></g></svg>