<?xml version="1.0" encoding="UTF-8"?><svg id="Who_is_at_risk" xmlns="http://www.w3.org/2000/svg" viewBox="0 0 32 32"><defs><style>.cls-1{fill:#999;}.cls-1,.cls-2{stroke:#fff;stroke-miterlimit:10;}.cls-2{fill:#d99898;}</style></defs><g id="ic_cancer"><path class="cls-2" d="M20.5,8.24l-4.15-2.39c-.13-.08-.29-.08-.41,0l-4.15,2.39c-.13,.08-.21,.21-.21,.36v4.8c0,.12,.06,.24,.16,.32,.01,.01,.03,.03,.05,.04l4.15,2.4s.03,.02,.05,.02c.1,.05,.21,.05,.31,0,.02,0,.03,0,.05-.02l4.15-2.4s.04-.03,.05-.04c.1-.08,.15-.19,.15-.32v-4.8c0-.15-.08-.29-.21-.36Zm-4.57,4.07l-.82-.47c-.13-.08-.21-.21-.21-.36v-.94c0-.14,.08-.28,.21-.36l.82-.47c.12-.08,.28-.08,.41,0l.82,.47c.13,.08,.21,.21,.21,.36v.94c0,.15-.08,.29-.21,.36l-.82,.47c-.13,.07-.29,.07-.41,0Z"/><path class="cls-2" d="M15.28,17.37s-.03-.03-.05-.04l-4.15-2.4s-.03-.02-.05-.02c-.12-.05-.25-.05-.36,.02l-4.15,2.4c-.13,.08-.21,.21-.21,.36v4.8c0,.15,.08,.29,.21,.36l4.15,2.4c.13,.08,.29,.08,.42,0l4.15-2.4c.12-.07,.21-.21,.21-.36v-4.8c0-.12-.06-.24-.16-.32Zm-3.18,3.19c0,.14-.08,.28-.21,.36l-.81,.47c-.13,.08-.29,.08-.42,0l-.82-.47c-.13-.08-.21-.21-.21-.36v-.95c0-.14,.08-.28,.21-.36l.82-.47c.13-.07,.29-.07,.42,0l.81,.47c.13,.08,.21,.21,.21,.36v.95Z"/><path class="cls-1" d="M25.85,17.37s-.03-.03-.05-.04l-4.15-2.4s-.03-.02-.05-.02c-.12-.05-.25-.05-.36,.02l-4.15,2.4c-.13,.08-.21,.21-.21,.36v4.8c0,.15,.08,.29,.21,.36l4.15,2.4c.13,.08,.29,.08,.42,0l4.15-2.4c.12-.07,.21-.21,.21-.36v-4.8c0-.12-.06-.24-.16-.32Zm-3.18,3.19c0,.14-.08,.28-.21,.36l-.81,.47c-.13,.08-.29,.08-.42,0l-.82-.47c-.13-.08-.21-.21-.21-.36v-.95c0-.14,.08-.28,.21-.36l.82-.47c.13-.07,.29-.07,.42,0l.81,.47c.13,.08,.21,.21,.21,.36v.95Z"/></g></svg>