<?xml version="1.0" encoding="UTF-8"?><svg id="Livello_20" xmlns="http://www.w3.org/2000/svg" viewBox="0 0 32 32"><defs><style>.cls-1{fill:#b2a3a1;}.cls-1,.cls-2{stroke:#b2a3a1;stroke-miterlimit:10;stroke-width:.5px;}.cls-2{fill:#cbb6b3;}</style></defs><path class="cls-2" d="M20.41,8.12l-4.96-2.86c-.16-.09-.34-.09-.49,0l-4.96,2.86c-.16,.09-.25,.25-.25,.43v5.73c0,.15,.07,.29,.19,.38,.02,.02,.04,.03,.07,.05l4.96,2.86s.04,.02,.06,.02c.11,.06,.25,.06,.37,0,.02,0,.04,0,.07-.02l4.96-2.86s.05-.03,.07-.05c.11-.09,.18-.23,.18-.38v-5.73c0-.18-.09-.34-.25-.43Zm-5.45,4.85l-.97-.56c-.16-.09-.25-.25-.25-.43v-1.12c0-.17,.1-.34,.25-.43l.97-.56c.15-.09,.34-.09,.49,0l.97,.56c.16,.09,.25,.25,.25,.43v1.12c0,.18-.09,.34-.25,.43l-.97,.56c-.16,.08-.34,.08-.49,0Z"/><path class="cls-2" d="M14.34,18.65s-.03-.03-.06-.05l-4.96-2.86s-.04-.02-.07-.02c-.14-.07-.3-.06-.43,.02l-4.96,2.86c-.16,.09-.25,.25-.25,.43v5.73c0,.18,.09,.34,.25,.43l4.96,2.86c.16,.09,.34,.09,.5,0l4.96-2.86c.15-.08,.25-.25,.25-.43v-5.73c0-.15-.07-.29-.19-.38Zm-3.8,3.8c0,.17-.1,.34-.25,.43l-.97,.56c-.16,.09-.34,.09-.5,0l-.97-.56c-.16-.09-.25-.25-.25-.43v-1.13c0-.17,.09-.34,.25-.43l.97-.56c.16-.08,.34-.08,.5,0l.97,.56c.16,.09,.25,.25,.25,.43v1.13Z"/><path class="cls-1" d="M26.6,18.65s-.03-.03-.06-.05l-4.96-2.86s-.04-.02-.07-.02c-.14-.07-.3-.06-.43,.02l-4.96,2.86c-.16,.09-.25,.25-.25,.43v5.73c0,.18,.09,.34,.25,.43l4.96,2.86c.16,.09,.34,.09,.5,0l4.96-2.86c.15-.08,.25-.25,.25-.43v-5.73c0-.15-.07-.29-.19-.38Zm-3.8,3.8c0,.17-.1,.34-.25,.43l-.97,.56c-.16,.09-.34,.09-.5,0l-.97-.56c-.16-.09-.25-.25-.25-.43v-1.13c0-.17,.09-.34,.25-.43l.97-.56c.16-.08,.34-.08,.5,0l.97,.56c.16,.09,.25,.25,.25,.43v1.13Z"/></svg>