<?xml version="1.0" encoding="UTF-8"?><svg id="Who_is_at_risk" xmlns="http://www.w3.org/2000/svg" viewBox="0 0 32 32"><defs><style>.cls-1{fill:#e3fcff;}.cls-2{fill:#fff;}.cls-3{fill:#d99898;}.cls-4{fill:#dbdbdb;}</style></defs><g id="ic_diabetic"><path class="cls-2" d="M21.33,8.35c0-1.33-1.08-2.4-2.4-2.4h-5.51c-1.33,0-2.41,1.08-2.41,2.4v8.39s.02,.07,.02,.1c0,.06-.02,.13-.02,.19,0,2.33,1.69,4.28,3.97,4.79,.38,.08,.78,.13,1.19,.13s.76-.04,1.13-.12c2.31-.49,4.04-2.46,4.04-4.81,0-.06-.01-.13-.02-.19,0-.03,.02-.06,.02-.1V8.35Zm-7.71,10.8c-.56,0-1.01-.46-1.01-1.01s.45-1.01,1.01-1.01,1.01,.45,1.01,1.01-.46,1.01-1.01,1.01Zm5.1,0c-.56,0-1.01-.46-1.01-1.01s.45-1.01,1.01-1.01,1.01,.45,1.01,1.01-.46,1.01-1.01,1.01Z"/><rect class="cls-4" x="14.97" y="20.65" width="2.32" height="3.91" rx=".31" ry=".31"/><rect class="cls-1" x="12.68" y="7.9" width="6.97" height="8.18" rx=".21" ry=".21"/><path class="cls-3" d="M18.28,12.76c0,1.17-.95,2.11-2.11,2.11s-2.11-.95-2.11-2.11,2.11-3.66,2.11-3.66c0,0,2.11,2.49,2.11,3.66Z"/></g></svg>