<?xml version="1.0" encoding="UTF-8"?><svg id="ic_diabetic" xmlns="http://www.w3.org/2000/svg" viewBox="0 0 32 32"><defs><style>.cls-1{fill:#e3fcff;}.cls-2{fill:#cb3234;}.cls-3{fill:#545454;}.cls-4{fill:#878787;}</style></defs><path class="cls-3" d="M22.16,6.4c0-1.78-1.44-3.22-3.22-3.22h-7.38c-1.78,0-3.23,1.44-3.23,3.22v11.23c0,.06,.03,.09,.03,.14,0,.08-.03,.17-.03,.25,0,3.11,2.27,5.73,5.32,6.41,.51,.11,1.05,.18,1.6,.18s1.02-.06,1.51-.16c3.09-.66,5.4-3.29,5.4-6.43,0-.08-.02-.17-.03-.25,0-.05,.03-.08,.03-.14V6.4Zm-10.32,14.46c-.75,0-1.36-.61-1.36-1.36s.6-1.36,1.36-1.36,1.36,.6,1.36,1.36-.61,1.36-1.36,1.36Zm6.82,0c-.75,0-1.36-.61-1.36-1.36s.6-1.36,1.36-1.36,1.36,.6,1.36,1.36-.61,1.36-1.36,1.36Z"/><rect class="cls-4" x="13.65" y="22.86" width="3.11" height="5.23" rx=".31" ry=".31"/><rect class="cls-1" x="10.59" y="5.8" width="9.33" height="10.94" rx=".21" ry=".21"/><path class="cls-2" d="M18.08,12.31c0,1.56-1.27,2.83-2.83,2.83s-2.83-1.27-2.83-2.83,2.83-4.9,2.83-4.9c0,0,2.83,3.33,2.83,4.9Z"/></svg>