<?xml version="1.0" encoding="UTF-8"?><svg id="Who_is_at_risk" xmlns="http://www.w3.org/2000/svg" viewBox="0 0 32 32"><defs><style>.cls-1{fill:#c46164;stroke:#fff;stroke-miterlimit:10;stroke-width:.75px;}</style></defs><g id="ic_hiv"><path class="cls-1" d="M22.06,23.92l-3.63-7.16,2.98-5.9c1.06-2.09,.22-4.64-1.87-5.69v.02h-.01v-.02s-.18-.11-.5-.26c-.71-.38-1.57-.62-2.51-.69-.14-.01-.27-.02-.41-.03-.04,0-.07,0-.11,0-.02,0-.05,0-.07,0-.58,0-1.19,.07-1.81,.26-.05,.01-.1,.03-.15,.04-.13,.04-.26,.1-.39,.15-.47,.18-.89,.41-1.25,.68-1.91,1.12-2.66,3.54-1.64,5.55l2.98,5.9-3.63,7.16,2.39,4.7,3.62-7.16,3.62,7.16,2.39-4.7ZM15.88,7.46h0c1.14-.04,1.91,1.16,1.39,2.19l-1.22,2.41-1.33-2.63c-.45-.88,.17-1.93,1.16-1.96Z"/></g></svg>