<?xml version="1.0" encoding="UTF-8"?><svg id="Who_is_at_risk" xmlns="http://www.w3.org/2000/svg" viewBox="0 0 32 32"><defs><style>.cls-1{fill:#fff;}.cls-2{fill:#d99898;}.cls-3{fill:#c98c8c;}.cls-4{fill:#5b798c;}.cls-5{fill:#77a8c7;}.cls-6{fill:#82b7d9;}</style></defs><g id="ic_heart"><path class="cls-1" d="M9.11,19.44s-3.02-2.52-2.8-4.14,.38-2.03-.84-3.13-.93-2.01-.22-2.97c.47-.62,.56-2.09,1.6-1.21,.87,.72,1.25,.98,1.13,.37s-1.14-1.51,.68-2.23c1.84-.76,1.93-.82,2.47,.39s1.16,1.3,1.07,.38c-.12-1.2-.93-1.82,.5-2.27s2.89-.48,2.31,1.64,.43,.85,.43,.85c0,0,1.08-1.51,1.83-.45,.37,.52,.05,1,1.52,1.23,.35,.05,.83,.27,1.26-.4s1.38-.6,2.25-.19c.97,.49,1.05,1.07,1.48,1.35,.39,.25,.8-.05,1.64,.7,.84,.85,1.05,1.96-.09,2.63-1.21,.92-1.35,1.09-1.35,1.09,0,0,.74,1.33,.88,2.5,.42,2.81,.25,8.02-3.19,11.47-1.21,.98-4.24,.47-6.37-.73-3.41-1.92-5.33-4.28-6.18-6.87Z"/><path class="cls-4" d="M21.08,11.08c.54-.8,1.37-1.81,1.64-2.13,.05-.07,.09-.15,.09-.24-.04-.81-1.19-1.19-1.91-1.05-.54,.1-1.48,1.84-1.95,3.08,0,0,.86,.08,1.3,.15s.83,.19,.83,.19Z"/><path class="cls-4" d="M23.37,12.74c.84-.64,1.74-1.46,2.03-1.72,.06-.05,.09-.14,.07-.22-.25-1.3-1.13-1.4-1.5-1.38-.1,0-.2,.03-.28,.08-1.01,.54-1.57,1.23-1.89,1.8,0,0,.58,.32,.91,.65s.66,.79,.66,.79Z"/><path class="cls-6" d="M8.94,17.9s-1.98-1.79-1.71-2.89c.27-1.09,.66-1.46-1.5-3.72,0,0-.66-.66-.19-1.29s.46-1.16,.74-1.37c.28-.21,.55,.58,1.7,1.18,1.15,.61,1.39,.03,.82-1.47,0,0-1.01-1.18-.19-1.52,.82-.34,1.48-1.15,2.02,.07s1.86,2.01,2.17,.67c.31-1.34-.66-2.12-.1-2.37,.56-.26,2.38-.73,1.66,.9-.52,1.18-.08,2.15,.14,2.52,.05,.09,.02,.2-.07,.26-1.52,.96-2.01,1.79-2.15,2.41-.05,.2-.13,.71-.5,1.25-.29,.43-.59,.64-.87,.86-.21,.17-1.52,1.23-1.93,2.61-.11,.38-.23,1.02-.04,1.89Z"/><path class="cls-2" d="M17.35,10.86c-.21-.05-.43-.07-.67-.07h0c-.19-.47,1.71-1.9,1.71-1.9,.72-.64-.95-.51-1.25-.74-.3-.23-.27-.96-.62-.84s-.88,1.47-2.04,2.3c-1.15,.84-1.61,1.93-1.61,1.93-.15,1.22-1.21,2.19-1.49,2.34-.28,.15-.85,.68-1.56,2.03-.7,1.35,.41,3.32,.41,3.32,1.8,4.78,7.02,7.92,9.97,7.37,2.63-.5,4.93-7.86,3.52-11.98-1.41-4.12-3.83-3.1-6.39-3.77Z"/><path class="cls-3" d="M23.68,21.26s-1.02,3.76-2.36,4.73c-1.16,.93-1.61,.68-2.9,.57s-4.16-1.71-5.66-3.38-1.95-2.44-2.51-3.93c0,0-1.46-2.92,.09-3.13s2.66,2.21,3.59,2.98c.85,1.03,2.08,1.98,4.04,1.89s2.87-.88,4.8-.77c1.34,.03,.91,1.04,.91,1.04Z"/><path class="cls-5" d="M12.27,11.29c-.05,.2-.13,.71-.5,1.25-.29,.43-.59,.64-.87,.86-.21,.17-1.52,1.23-1.93,2.61-.11,.38-.23,1.02-.04,1.89,0,0-1.98-1.79-1.71-2.89,.27-1.09,.89-1.69,2.4-2.27,.67-.26,1.15-.72,1.5-1.32s1.29-.75,1.15-.14Z"/></g></svg>