<?xml version="1.0" encoding="UTF-8"?><svg id="ic_immunocompromised_people_" xmlns="http://www.w3.org/2000/svg" viewBox="0 0 32 32"><defs><style>.cls-1{stroke:#fff;stroke-linecap:round;stroke-linejoin:round;stroke-width:.3px;}.cls-1,.cls-2{fill:#f1a2a0;}.cls-3{fill:#fff;}.cls-4{fill:#fcd5d2;}.cls-5{fill:#bed5f6;}</style></defs><path class="cls-5" d="M17.79,11.44c-.08-.64,1.43-3.92,2.16-4.06,.69-.13,1.8,.24,1.84,1.01,0,.08-.03,.16-.09,.23-.38,.46-1.94,2.38-2.05,2.9-.13,.6-1.86-.09-1.86-.09Z"/><path class="cls-5" d="M20.45,11.8s.24-1.68,2.19-2.72c.08-.04,.18-.07,.27-.08,.36-.02,1.2,.08,1.45,1.33,.01,.08-.01,.16-.07,.21-.35,.32-1.62,1.47-2.55,2.08-1.08,.72-1.29-.82-1.29-.82Z"/><path class="cls-4" d="M9.57,18.99s-2.72-3.58-2.46-4.61,.63-1.38-1.41-3.51c0,0-.62-.62-.18-1.21s.44-1.09,.7-1.29,.52,.54,1.6,1.11,1.31,.03,.77-1.38c0,0-.95-1.11-.18-1.43s1.4-1.09,1.9,.07,1.75,1.89,2.04,.63-.63-1.99-.1-2.23,2.46-.57,1.56,.85,.82,3.54,.82,3.54l-5.07,9.46Z"/><path class="cls-2" d="M16.68,10.6c-.21-.05-.43-.07-.67-.07h0c-.19-.47,1.71-1.9,1.71-1.9,.72-.64-.95-.51-1.25-.74-.3-.23-.27-.96-.62-.84s-.88,1.47-2.04,2.3c-1.15,.84-1.61,1.93-1.61,1.93-.15,1.22-1.21,2.19-1.49,2.34-.28,.15-.85,.68-1.56,2.03-.7,1.35,.41,3.32,.41,3.32,1.8,4.78,7.02,7.92,9.97,7.37,2.63-.5,4.93-7.86,3.52-11.98s-3.83-3.1-6.39-3.77Z"/><g><g><path class="cls-2" d="M16.01,10.53s-2.24,3.46-.75,6.51c0,0,.14,.88-.22,1.66-.12,.26-.29,.51-.55,.71-1.01,.8-2.61-.1-2.8-.64"/><path class="cls-3" d="M16.01,10.53c-1.02,1.96-1.59,4.37-.62,6.44,.3,1.57-.84,3.41-2.58,2.69-.45-.19-.91-.45-1.11-.9,.24,.42,.72,.64,1.16,.78,1.7,.56,2.46-1.2,2.28-2.44-1.04-2.14-.38-4.69,.88-6.57h0Z"/></g><g><path class="cls-2" d="M12.93,20.9c1.45-.12,1.82-1.69,1.82-1.69,0,0-.87,2.69,.16,3.38"/><path class="cls-3" d="M12.93,20.9c.9-.16,1.47-.93,1.68-1.72l.27,.08c-.22,.83-.44,1.71-.34,2.57,.04,.28,.13,.57,.36,.77-.56-.32-.62-1.06-.62-1.64,.04-.61,.13-1.21,.32-1.78l.27,.08c-.24,.89-1.01,1.7-1.96,1.66h0Z"/></g><g><path class="cls-2" d="M15.26,17.04s.11,.16,.33,.39c.28,.29,.74,.69,1.38,1,1.16,.56,1.63,3.35,1.25,3.77s-.33,1.69,.27,2.23"/><path class="cls-3" d="M15.26,17.04c.49,.56,1.1,.98,1.75,1.28,1.06,.62,1.34,1.88,1.47,2.99,0,.3,.04,.6-.11,.89-.3,.36-.33,.78-.28,1.24,.04,.35,.15,.72,.41,.99-.56-.5-.76-1.36-.49-2.11,.12-.22,.19-.28,.2-.46,.05-.53-.07-1.07-.21-1.58-.19-.68-.49-1.4-1.08-1.75-.67-.35-1.25-.86-1.65-1.49h0Z"/></g><g><path class="cls-2" d="M15.59,17.43s.67,.6,3.24,.08c.21-.04,.43-.09,.67-.15,0,0,1.27-.6,.75-2.25"/><path class="cls-3" d="M15.59,17.43c1.24,.46,2.62,.02,3.88-.21,.64-.31,1.02-1.32,.78-2.12,.4,.82,.18,1.94-.7,2.38-1.26,.28-2.79,.67-3.96-.06h0Z"/></g><path class="cls-1" d="M18.84,17.51s2.03-.62,1.97,1.52"/></g></svg>