<?xml version="1.0" encoding="UTF-8"?><svg id="Who_is_at_risk" xmlns="http://www.w3.org/2000/svg" viewBox="0 0 32 32"><defs><style>.cls-1{fill:#fff;}.cls-2{fill:#b53a3d;}.cls-3{fill:#d99898;}.cls-4{fill:#c46769;}.cls-5{fill:#bf5456;}.cls-6{fill:#c98c8c;}</style></defs><g id="ic_inflammatory"><path class="cls-1" d="M11.71,3.92c-1.13,.85-3.89,3.62,.21,8.16,.11,.12,.13,.3,.03,.44-.56,.77-2.19,3.48-.26,6.7,.09,.15,.1,.34,.01,.49-.54,.94-2.33,4.48-.28,7.2,.15,.2,.36,.35,.59,.46,1.02,.49,4.12,1.66,8.3,.47,.41-.12,.73-.43,.88-.82,.49-1.24,1.3-4.13-.28-6.87-.12-.2-.13-.45-.02-.65,.65-1.11,2.57-5.01,.16-8.79-.09-.14-.11-.31-.04-.46,.39-.83,1.51-3.79-1.02-6.03-.23-.21-.55-.31-.86-.33l-6.58-.24c-.31-.01-.61,.08-.85,.26Z"/><path class="cls-3" d="M11.91,5.1c.25-.17,.56-.24,.87-.24h6.18c.24,0,.47,.08,.64,.23,.42,.38,1.77,4.27,.13,4.87-.25,.09-.37,.34-.17,1.05s.94-.21,1.57,3.14-.59,4.35-1.03,4.4c-.48,.06-1.58,1.19-.64,1.76,1.28,.78,2.21,3.08,.86,6.07-.09,.2-.28,.35-.5,.4-1.15,.26-4.94,.98-7.19-.36-.14-.08-.25-.21-.3-.37-.32-.83-1.06-3.37,.81-5.99,.21-.3,.37-.64-.41-1.42s-1.15-4.56,.1-5.11,1.03-2.28-.3-2.4c-1.25-.12-2.57-4.73-.61-6.05Z"/><path class="cls-6" d="M11.88,5.06c-1.96,1.32-.64,5.93,.61,6.05,1.33,.12,1.56,1.86,.3,2.4s-.88,4.33-.1,5.11,.62,1.12,.41,1.42c-1.86,2.62-1.13,5.15-.81,5.99,.06,.15,.16,.28,.3,.37,.66,.39,1.78,.7,2.35,.75,0,0-.34-1.57-.09-3.22,.3-1.92,1.15-2.39,1.14-4.43s-1.06-1.66-1.45-3.44c-.21-.98,.91-1.23,.89-3.93s-1.73-3.16-1.68-4.39,.35-2.88,.35-2.88c-1.87-.06-2.1,.12-2.23,.21Z"/><circle class="cls-4" cx="19.47" cy="13.76" r="4.95"/><circle class="cls-5" cx="19.47" cy="13.76" r="3.6"/><circle class="cls-2" cx="19.47" cy="13.76" r="2.23"/></g></svg>