<?xml version="1.0" encoding="UTF-8"?><svg id="Who_is_at_risk" xmlns="http://www.w3.org/2000/svg" viewBox="0 0 32 32"><defs><style>.cls-1{fill:#fff;}.cls-2{fill:#c98c8c;}.cls-3{fill:#d99898;stroke:#fff;stroke-miterlimit:10;}</style></defs><g id="ic_kidney"><path class="cls-1" d="M16.99,12.01s.04-.01,.12-.04c.57-.17,3.1-.8,4.21,.6,1.26,1.58,.96,4.41,.71,6.03s-.77,7.02-.55,7.79,.01,.86-.34,.75-.12-2.81-.09-3.16,.37-4.69,.03-5.57c-.3-.78-1.91-2.22-3.72-2.04s-.37-4.36-.37-4.36Z"/><path class="cls-3" d="M18.24,12.46c1.52-.1,2.93-1.66,2.56-5.13s-3.78-4.11-7.79-1.32c-.22,.15-.43,.33-.64,.52-1.29,.99-2.88,2.88-3.63,4.46-.58,1.21-.9,2.43-.97,3.51-.2,1.69-.23,3.99,.61,7.28,.98,3.82,3.26,5.49,6.14,5.49s4.55-2.26,5.22-4.89c.41-1.63-.52-5.43-2.12-7.49,1.16-.9,.62-2.42,.62-2.42Z"/><path class="cls-2" d="M18.31,21.99c.53,.13,.83,.68,.64,1.19-.75,2-2.2,3.57-4.47,3.57-2.64,0-4.73-1.57-5.63-5.15-.77-3.09-.74-5.25-.56-6.83,.06-1.01,2.57-1.61,4.36,2.69,1.29,3.1,4.15,4.18,5.65,4.53Z"/></g></svg>