<?xml version="1.0" encoding="UTF-8"?><svg id="ic_kidney" xmlns="http://www.w3.org/2000/svg" viewBox="0 0 32 32"><defs><style>.cls-1{fill:#ffdbbf;}.cls-2{fill:#8c4545;}.cls-3{fill:#a13f3f;}</style></defs><path class="cls-1" d="M17.87,12.29s.04-.01,.11-.03c.55-.16,2.99-.77,4.06,.58,1.21,1.53,.93,4.25,.68,5.81s-.74,6.77-.53,7.51,.01,.83-.33,.73-.11-2.71-.09-3.05,.35-4.52,.03-5.37c-.29-.75-1.84-2.14-3.59-1.97s-.36-4.2-.36-4.2Z"/><path class="cls-3" d="M19.45,12.05c1.77-.11,3.42-1.94,2.99-5.98s-4.41-4.79-9.09-1.54c-.25,.18-.5,.38-.75,.6-1.5,1.15-3.35,3.36-4.24,5.2-.68,1.41-1.05,2.84-1.13,4.1-.23,1.97-.27,4.66,.71,8.49,1.14,4.45,3.8,6.4,7.16,6.4s5.31-2.64,6.09-5.7c.48-1.9-.6-6.33-2.48-8.74,1.35-1.05,.72-2.83,.72-2.83Z"/><g id="Livello_15"><path class="cls-2" d="M22.5,6.92c.5,2.53-.41,6.18-3.69,5.56l.4-.74c1.42,1.4,.94,3.22-1.01,3.66l.21-.82c3.24,3.32,4.39,8.98,1.07,12.62,2.72-4.09,1.05-9.38-2.33-12.51,.58-.17,1.79-.47,1.9-1.02,.17-.82-.84-1.69-1.28-2.29l1.2,.23c2.71,.66,3.45-2.59,3.53-4.7h0Z"/></g></svg>