<?xml version="1.0" encoding="UTF-8"?><svg xmlns="http://www.w3.org/2000/svg" viewBox="0 0 32 32"><defs><style>.cls-1{fill:#fff;}.cls-2{fill:#b53a3d;}.cls-3{fill:#c46769;}.cls-4{fill:#bf5456;}.cls-5{fill:#d99898;stroke:#fff;stroke-miterlimit:10;stroke-width:.75px;}</style></defs><g id="Complications"><g id="ic_mencef"><path class="cls-1" d="M27.71,16.22c0-1.61-.69-2.99-1.7-3.73-.1-1.77-1.49-3.17-3.26-3.28-.8-1.35-2.26-2.26-3.94-2.26-.37,0-.72,.05-1.07,.14-.63-.32-1.32-.52-2.07-.52-1.15,0-2.19,.44-3,1.14-.3-.07-.62-.11-.94-.11-1.64,0-3.06,.91-3.81,2.24-.1-.02-.21-.03-.32-.03-1,0-1.82,.72-2,1.66-1.36,.81-2.27,2.22-2.27,3.83,0,2.39,2.54,4.61,5.11,4.82,.74,1.28,2,2.2,3.51,2.45,.63,.21,1.4,.34,2.24,.34,.59,0,1.14-.07,1.63-.17,.02,.02,2.08-1.09,2.04-.41-.04,.72,.37,2,.82,2.07,.44,.1,.89,.17,1.36,.17,2.67,0,4.82-1.04,5.25-3.22,1.23-.05,2.24-.75,2.35-1.72,.06-.46-.1-.91-.4-1.29,.28-.63,.45-1.35,.45-2.13Z"/><path class="cls-5" d="M27.32,16.14c0-1.49-.64-2.78-1.58-3.46-.09-1.64-1.39-2.95-3.02-3.05-.75-1.25-2.1-2.09-3.66-2.09-.34,0-.67,.05-.99,.13-.58-.3-1.23-.48-1.93-.48-1.07,0-2.03,.41-2.78,1.06-.28-.06-.57-.1-.87-.1-1.52,0-2.84,.84-3.54,2.08-.1-.02-.19-.03-.3-.03-.93,0-1.69,.67-1.86,1.55-1.26,.75-2.11,2.06-2.11,3.56,0,2.22,2.35,4.28,4.75,4.47,.68,1.19,1.86,2.04,3.26,2.28,.59,.2,1.3,.32,2.08,.32,.54,0,1.05-.06,1.52-.16,.01,.02,2.12,2.93,2.08,3.57-.04,.67,1.38,1.12,1.05,0-.16-.54-.34-1.34-.48-2.03,.41,.09,.82,.16,1.26,.16,2.48,0,4.47-.97,4.88-2.99,1.14-.05,2.08-.7,2.19-1.6,.05-.43-.1-.84-.38-1.2,.26-.58,.42-1.25,.42-1.98Z"/><path class="cls-1" d="M8.99,9.96c.25,.53,.39,1.33,.16,1.82-.02-.02,0,.08,.04,.17,.09,.19,.23,.39,.35,.61-.4-.14-.84-.34-.86-.87,.17-.6,.08-1.1,.31-1.73h0Z"/><path class="cls-1" d="M13.72,7.88c-.18,.71-.55,1.43-.73,2.09-.06,.7,.11,1.47,.15,2.2-.42-.69-.7-1.43-.64-2.27,.22-.82,.67-1.42,1.22-2.02h0Z"/><path class="cls-1" d="M12.97,9.29c.09,.78-1.08,1.44-1.54,.67,.68-.01,.94-.33,1.54-.67h0Z"/><path class="cls-1" d="M16.93,11.54c-1.57-1.31,.18-3.24,1.32-4.17l.31,.37c-1.14,.95-.35,1.39,.68,1.69-.53-.02-1.11-.03-1.48-.5-.36-.57,.1-1.17,.5-1.56l.31,.37c-.99,.98-2.67,2.32-1.62,3.8h0Z"/><path class="cls-1" d="M22.5,9.29c.76,.94,.08,1.94-.96,2.27l-.3-.14c-.16-.14-.74-.22-1.07-.2-.45,0-.91,.04-1.36,.1,.44-.14,.88-.27,1.34-.35,.52-.05,1.12-.24,1.55,.25,0,0-.31-.14-.29-.14,.94-.11,1.6-.86,1.09-1.79h0Z"/><path class="cls-1" d="M21.47,11.32c.65,.3,1.22,1.39,.55,1.91-.05-.71-.5-1.16-.55-1.91h0Z"/><path class="cls-1" d="M8.91,19.59c0-2.96,2.25-4.46,5.04-3.53,.38,.14,.61,.32,1,.22,.34-.08,.71-.23,1.06-.38l-.12,.15c.26-.78,.68-1.62,1.55-1.85,.46-.1,.83,.1,1.2,.17l1.13,.3-1.16-.13c-.39-.03-.79-.15-1.1-.05-.7,.23-1.02,1.09-1.22,1.78-.8,.4-1.65,.77-2.51,.27-2.61-.85-4.42,.36-4.87,3.06h0Z"/><path class="cls-1" d="M10.31,16.61c-.75-.14-1.19-.78-1.87-1.01,.72-.49,1.61,.34,1.87,1.01h0Z"/><path class="cls-1" d="M12.01,16.05c-.47-.54-.7-1.2-.7-1.9,.02-.22,.02-.53,.26-.67,.09,.87,.56,1.63,.44,2.57h0Z"/><path class="cls-1" d="M15.52,16.09c-.35-.49-.67-.69-.86-1.23-.05-.19-.03-.43,.14-.56,.04,.19,.13,.3,.21,.4,.37,.34,.72,.86,.51,1.38h0Z"/><path class="cls-1" d="M15.15,19.01c.62-1.31,2.68-1.11,3.78-1.06,1.44-.02,1.88-.77,3.05-1.26,.44-.11,.86-.03,1.23,.08h-.07c.91-.25,.75-1.51,.66-2.26,.33,.87,.58,2.29-.63,2.64-.37-.06-.76-.11-1.07-.01-.63,.25-1.23,.96-1.98,1.1-1.55,.57-3.78-.68-4.97,.78h0Z"/><path class="cls-1" d="M22.88,19.23c.81-.06,1.43-.1,2.03-.68,.56-.47,1.74-1.04,2.23-.19-.73-.46-1.35,.17-1.92,.58-.61,.6-1.59,.66-2.34,.29h0Z"/><path class="cls-1" d="M20.09,18.07c.65-.12,1.1,.75,.69,1.24-.32-.41-.48-.82-.69-1.24h0Z"/><path class="cls-1" d="M18.32,17.91c-.62-.41-1.24-1.69-.14-1.86-.09,.18-.16,.34-.17,.46,.07,.43,.39,.9,.31,1.39h0Z"/><path class="cls-1" d="M18.32,14.31c-.1-.36,.13-.8,.55-.8-.01,0-.05,.08,0,.03,.05-.06,.09-.19,.16-.33,.22,.16,.34,.52,.05,.73-.45,.15-.2,.03-.77,.37h0Z"/></g></g><g id="Who_is_at_risk"><g id="ic_inflammatory"><g><circle class="cls-3" cx="8.91" cy="9.29" r="5.15"/><circle class="cls-4" cx="8.91" cy="9.29" r="3.75"/><circle class="cls-2" cx="8.91" cy="9.29" r="2.32"/></g></g></g></svg>