<?xml version="1.0" encoding="UTF-8"?><svg id="Who_is_at_risk" xmlns="http://www.w3.org/2000/svg" viewBox="0 0 32 32"><defs><style>.cls-1,.cls-2,.cls-3,.cls-4{fill:none;}.cls-1,.cls-5{opacity:.47;}.cls-6,.cls-5{fill:#fff;}.cls-7{fill:#dbdbdb;}.cls-2{stroke:#fff;stroke-linecap:round;}.cls-2,.cls-3,.cls-4{stroke-miterlimit:10;}.cls-2,.cls-4{stroke-width:.25px;}.cls-3{stroke-width:.75px;}.cls-3,.cls-4{stroke:#dbdbdb;}.cls-8{fill:#f1feff;opacity:.62;}</style></defs><g id="ic_over"><path class="cls-2" d="M7.02,13.7s-3.86,4.97,1.11,7.4,13.6,.16,12.77-.47c-.68-.52-5.3-1.41-5.59-.51-.46,1.43,8.46,2.79,11.04,.01s-.97-6.33-1.28-6.44"/><path class="cls-6" d="M26.92,19.43c-.28-.61-.83-1.28-1.4-1.48-.07-.02-.13-.05-.19-.06L7.97,12.86s-1.1,.22-1.05,1.59l17.7,4.25c.24,.07,.46,.23,.6,.45,.19,.29,.25,.7,.36,1.02,.29,.82,.46,1.56,1.5,1.06,.41-.2,.21-1.02-.16-1.81Z"/><path class="cls-6" d="M5.08,19.43c.28-.61,.83-1.28,1.4-1.48,.07-.02,.13-.05,.19-.06l17.36-5.02s1.08,.15,1.04,1.52L7.39,18.7c-.24,.07-.46,.23-.6,.45-.19,.29-.25,.7-.36,1.02-.29,.82-.46,1.56-1.5,1.06-.41-.2-.21-1.02,.16-1.81Z"/><path class="cls-7" d="M17.46,14.21l-.9-.51c-.35-.16-.78-.16-1.13,0l-.93,.52v-.59l1.04-.55c.28-.11,.61-.11,.89,0l1.04,.52v.62Z"/><circle class="cls-8" cx="10.78" cy="15.86" r="3.84"/><circle class="cls-8" cx="21.23" cy="15.86" r="3.84"/><circle class="cls-3" cx="10.78" cy="15.86" r="4.11"/><circle class="cls-3" cx="21.23" cy="15.86" r="4.11"/><path class="cls-5" d="M13.76,14.12l-6.03,3.62c-1-1.66-.46-3.82,1.2-4.82s3.83-.47,4.83,1.2Z"/><line class="cls-1" x1="13.76" y1="14.12" x2="7.73" y2="17.74"/><path class="cls-5" d="M24.38,14.12l-6.03,3.62c-1-1.66-.46-3.82,1.2-4.82s3.83-.47,4.83,1.2Z"/><line class="cls-1" x1="24.38" y1="14.12" x2="18.35" y2="17.74"/><rect class="cls-4" x="6.6" y="13.28" width=".63" height=".85" rx=".32" ry=".32"/><rect class="cls-4" x="24.75" y="13.28" width=".63" height=".85" rx=".32" ry=".32"/></g></svg>