<?xml version="1.0" encoding="UTF-8"?><svg id="Livello_23" xmlns="http://www.w3.org/2000/svg" viewBox="0 0 32 32"><defs><style>.cls-1,.cls-2,.cls-3,.cls-4{fill:none;}.cls-1,.cls-5{opacity:.47;}.cls-6{fill:#938989;}.cls-7{fill:#4d4545;}.cls-2{stroke:#b2a190;stroke-linecap:round;}.cls-2,.cls-3,.cls-4{stroke-miterlimit:10;}.cls-2,.cls-4{stroke-width:.25px;}.cls-3{stroke:#665b5b;stroke-width:.75px;}.cls-8{fill:#f1feff;opacity:.48;}.cls-4{stroke:#4d4545;}.cls-5{fill:#fff;}</style></defs><path class="cls-2" d="M4.32,13.39s-4.86,6.25,1.39,9.31,17.11,.2,16.07-.59c-.86-.65-6.66-1.77-7.03-.64-.58,1.8,10.64,3.51,13.89,.01s-1.22-7.96-1.61-8.1"/><path class="cls-6" d="M29.35,20.6c-.36-.77-1.05-1.61-1.76-1.86-.09-.03-.17-.07-.24-.08L5.52,12.34s-1.38,.28-1.33,2l22.26,5.34c.31,.09,.58,.29,.76,.57,.24,.37,.31,.88,.46,1.29,.37,1.04,.58,1.96,1.88,1.33,.51-.25,.26-1.28-.2-2.27Z"/><path class="cls-6" d="M1.88,20.6c.36-.77,1.05-1.61,1.76-1.86,.09-.03,.17-.07,.24-.08l21.83-6.32s1.36,.19,1.3,1.92L4.78,19.69c-.31,.09-.58,.29-.76,.57-.24,.37-.31,.88-.46,1.29-.37,1.04-.58,1.96-1.88,1.33-.51-.25-.26-1.28,.2-2.27Z"/><path class="cls-7" d="M17.48,15.67l-1.13-.73c-.44-.22-.97-.23-1.42,0l-1.16,.74v-.85l1.3-.78c.35-.16,.76-.16,1.12,0l1.3,.75v.88Z"/><circle class="cls-8" cx="9.05" cy="16.11" r="4.83"/><circle class="cls-8" cx="22.2" cy="16.11" r="4.83"/><circle class="cls-3" cx="9.05" cy="16.11" r="5.17"/><circle class="cls-3" cx="22.2" cy="16.11" r="5.17"/><path class="cls-5" d="M12.8,13.92l-7.59,4.56c-1.26-2.09-.58-4.81,1.51-6.07s4.82-.59,6.07,1.51Z"/><line class="cls-1" x1="12.8" y1="13.92" x2="5.22" y2="18.48"/><path class="cls-5" d="M26.16,13.92l-7.59,4.56c-1.26-2.09-.58-4.81,1.51-6.07s4.82-.59,6.07,1.51Z"/><line class="cls-1" x1="26.16" y1="13.92" x2="18.58" y2="18.48"/><rect class="cls-4" x="3.79" y="12.86" width=".79" height="1.07" rx=".4" ry=".4"/><rect class="cls-4" x="26.63" y="12.86" width=".79" height="1.07" rx=".4" ry=".4"/></svg>