<?xml version="1.0" encoding="UTF-8"?><svg id="Who_is_at_risk" xmlns="http://www.w3.org/2000/svg" viewBox="0 0 32 32"><defs><style>.cls-1{fill:#fff;}.cls-2{fill:#f2c4b1;}.cls-3{fill:#fed4c2;}.cls-4{fill:#d99898;}.cls-5{fill:#c98c8c;}.cls-6{fill:#5b798c;}.cls-7{fill:#77a8c7;}.cls-8{fill:#82b7d9;}</style></defs><g id="ic_transplant"><path class="cls-1" d="M21.54,17.32c.35-1.62,.3-3.2,.14-4.29-.11-.89-.67-1.89-.67-1.89,0,0,.11-.12,1.02-.82,.86-.5,.7-1.35,.07-1.99-.63-.57-.94-.34-1.24-.53-.33-.21-.39-.65-1.12-1.02-.65-.31-1.38-.37-1.7,.14s-.68,.34-.95,.3c-1.11-.18-.87-.54-1.15-.93-.57-.81-1.39,.34-1.39,.34,0,0-.76,.96-.32-.65s-.66-1.59-1.74-1.24-.47,.81-.38,1.72c.07,.7-.4,.63-.81-.29s-.48-.87-1.87-.29c-1.38,.54-.6,1.22-.52,1.69s-.2,.27-.86-.28c-.79-.67-.85,.45-1.21,.92-.54,.72-.76,1.41,.17,2.24s.8,1.14,.64,2.37,2.12,3.13,2.12,3.13c.35,1.07,.94,2.08,1.82,3.02,0,0-.28,.12-.36,.34,0,0-1.71-1.32-2.22-1.69-.44-.36-1.72-.43-1.63,.69,0,0-.79-.47-1.47,.18s-.37,1.53,.21,2l5.18,4.26s.96,.96,2.47,.71,7.39-.62,7.39-.62l3.27,1.58s2.08,1.31,3.22-.75l.73-1.64s1.3-2.13-1.05-3.11l-2.11-1.05c-1.36-.58-2.03-2.32-3.68-2.54Z"/><path class="cls-6" d="M18.83,9.64c.41-.61,1.04-1.37,1.24-1.61,.04-.05,.07-.11,.07-.18-.03-.61-.9-.9-1.44-.8-.4,.08-1.12,1.39-1.48,2.33,0,0,.65,.06,.98,.12s.63,.14,.63,.14Z"/><path class="cls-6" d="M20.56,10.89c.64-.49,1.32-1.1,1.54-1.3,.04-.04,.07-.11,.05-.17-.19-.98-.86-1.06-1.14-1.04-.08,0-.15,.03-.21,.06-.77,.41-1.19,.93-1.43,1.36,0,0,.44,.24,.69,.49s.5,.6,.5,.6Z"/><path class="cls-8" d="M9.65,14.79s-1.5-1.36-1.29-2.18c.21-.83,.5-1.11-1.14-2.82,0,0-.5-.5-.14-.97s.35-.88,.56-1.04c.21-.16,.42,.44,1.28,.9,.87,.46,1.05,.02,.62-1.11,0,0-.76-.89-.14-1.15,.62-.26,1.12-.87,1.53,.06s1.41,1.52,1.64,.51c.23-1.01-.5-1.6-.08-1.79,.42-.19,1.8-.55,1.26,.68-.39,.89-.06,1.63,.1,1.9,.04,.07,.01,.15-.05,.19-1.15,.73-1.52,1.36-1.63,1.82-.03,.15-.1,.53-.37,.94-.22,.33-.45,.48-.66,.65-.16,.13-1.15,.93-1.46,1.98-.09,.29-.17,.77-.03,1.43Z"/><path class="cls-4" d="M20.8,17.33c.43-1.7,.52-3.6,.04-5.01-1.07-3.12-2.89-2.34-4.83-2.85-.16-.04-.33-.05-.5-.05h0c-.14-.35,1.29-1.43,1.29-1.43,.55-.48-.72-.38-.94-.56-.23-.17-.21-.73-.47-.64s-.67,1.11-1.54,1.74c-.87,.63-1.22,1.46-1.22,1.46-.12,.92-.92,1.65-1.13,1.77-.21,.11-.65,.51-1.18,1.53-.53,1.02,.31,2.51,.31,2.51,.43,1.13,1.1,2.14,1.9,2.98,0,0,.96,.13,2.49-.18s1.86-.59,3.08-.89,2.69-.38,2.69-.38Z"/><path class="cls-3" d="M27.21,21.85l-2.73-1.36s-1.61-1.42-2.33-2.04c-.72-.62-1.94-.78-4.47-.02-2.53,.76-2.31,.76-4.32,.88-1.53,.09-1.68,.79-1.44,1.2-1.35-.91-2.95-2.05-2.95-2.05-.3-.26-.69-.31-.87-.1s-.08,.59,.23,.85l.65,.56-1.54-.88c-.39-.31-.92-.29-1.17,.04s-.15,.84,.25,1.15l5.76,4.5c.16,.12,.34,.18,.52,.2,0,0,0,.01,.02,.01h.05c.05,0,.1,0,.16-.02l3.74-.34h0l4.81-.43c.06,.05,.12,.11,.2,.15l3.47,1.72c.56,.28,1.24,.05,1.52-.51l.98-1.98c.28-.56,.05-1.24-.51-1.52Zm-10.25-.81s.22,.27-.28,.26c-2.38-.02-3.05,.06-3.25,.18-.25-.14-.61-.37-1.02-.65,.92,.16,4.43,.17,4.55,.21Z"/><path class="cls-2" d="M12.27,24.57c.16,.12,.34,.18,.52,.2,0,0,0,.01,.02,.01h.05c.05,0,.1,0,.16-.02l3.74-.34h0l4.81-.43c.06,.05,3.67,1.88,3.67,1.88,.56,.28,1.24,.05,1.52-.51l.68-1.38s-3.01-1.61-5.88-1.68-7.02,1.13-8.43,1.27c-.81,.08-3.48-1.92-4-2.19s-1.29-.55-1.21-.22l4.38,3.41Z"/><path class="cls-5" d="M20.8,17.33s-1.48,.09-2.7,.38-1.54,.58-3.08,.89-2.49,.18-2.49,.18c-.8-.84-1.48-1.85-1.9-2.98,0,0-1.1-2.21,.07-2.37s2.02,1.67,2.73,2.26c.65,.78,1.58,1.5,3.07,1.44s2.18-.67,3.64-.58c1.01,.02,.67,.78,.67,.78Z"/><path class="cls-7" d="M12.18,9.77c-.03,.15-.1,.54-.38,.95-.22,.33-.45,.48-.66,.65-.16,.13-1.15,.93-1.46,1.98-.09,.29-.17,.77-.03,1.43,0,0-1.5-1.36-1.3-2.19,.21-.83,.67-1.28,1.82-1.72,.51-.2,.87-.55,1.13-1s.98-.57,.87-.1Z"/></g></svg>