<?xml version="1.0" encoding="UTF-8"?><svg id="ic_transplant" xmlns="http://www.w3.org/2000/svg" viewBox="0 0 32 32"><defs><style>.cls-1{stroke:#fff;stroke-linecap:round;stroke-linejoin:round;stroke-width:.3px;}.cls-1,.cls-2{fill:#f1a2a0;}.cls-3{fill:#fff;}.cls-4{fill:#fcd5d2;}.cls-5{fill:#fed4c2;}.cls-6{fill:#bed5f6;}</style></defs><path class="cls-5" d="M12.03,25.03l-5.15-4.44c-.35-.3-.47-.74-.26-.98h0c.21-.24,.66-.19,1.01,.11l5.12,3.39c.35,.3,.49,1.78,.28,2.02h0c-.21,.24-.66,.19-1.01-.11Z"/><g><path class="cls-6" d="M15.62,11.17c-.08-.61,1.36-3.73,2.05-3.86,.66-.12,1.71,.23,1.74,.96,0,.08-.03,.16-.08,.22-.36,.43-1.84,2.26-1.95,2.76-.12,.57-1.76-.08-1.76-.08Z"/><path class="cls-6" d="M18.15,11.52s.23-1.6,2.08-2.59c.08-.04,.17-.07,.26-.07,.34-.02,1.14,.07,1.37,1.26,.01,.07-.01,.15-.07,.2-.33,.3-1.54,1.39-2.42,1.98-1.03,.68-1.23-.78-1.23-.78Z"/><path class="cls-4" d="M7.81,18.34s-2.59-3.41-2.34-4.38,.59-1.31-1.34-3.33c0,0-.59-.59-.17-1.15s.42-1.04,.67-1.23,.49,.52,1.52,1.06,1.25,.03,.73-1.31c0,0-.9-1.05-.17-1.36s1.33-1.03,1.81,.07,1.67,1.8,1.94,.6-.59-1.89-.09-2.12,2.34-.54,1.49,.8,.78,3.36,.78,3.36l-4.82,8.99Z"/><path class="cls-2" d="M14.56,10.38c-.2-.05-.41-.07-.63-.06h0c-.18-.44,1.62-1.8,1.62-1.8,.69-.6-.9-.48-1.19-.7-.29-.22-.26-.91-.59-.8s-.84,1.39-1.94,2.19c-1.1,.8-1.53,1.84-1.53,1.84-.14,1.15-1.15,2.08-1.42,2.22-.27,.14-.81,.65-1.48,1.93-.67,1.28,.39,3.15,.39,3.15,1.71,4.55,6.68,7.53,9.47,7,2.5-.47,4.69-7.46,3.35-11.38-1.34-3.92-3.64-2.94-6.07-3.58Z"/><g><g><path class="cls-2" d="M13.92,10.31s-2.13,3.29-.71,6.18c0,0,.13,.84-.21,1.58-.11,.25-.28,.48-.52,.67-.96,.76-2.48-.1-2.66-.61"/><path class="cls-3" d="M13.92,10.31c-.96,1.86-1.51,4.15-.58,6.12,.29,1.49-.8,3.25-2.46,2.57-.42-.18-.87-.43-1.06-.86,.23,.4,.68,.6,1.1,.73,1.61,.53,2.33-1.15,2.16-2.31-.99-2.03-.36-4.46,.84-6.25h0Z"/></g><g><path class="cls-2" d="M10.99,20.16c1.38-.12,1.73-1.61,1.73-1.61,0,0-.82,2.56,.16,3.21"/><path class="cls-3" d="M10.99,20.16c.85-.16,1.39-.89,1.59-1.64l.27,.08c-.2,.79-.42,1.62-.32,2.44,.04,.26,.12,.54,.34,.73-.26-.14-.42-.41-.5-.69-.21-.85-.04-1.74,.21-2.56l.27,.08c-.22,.84-.96,1.62-1.87,1.58h0Z"/></g><g><path class="cls-2" d="M13.21,16.49s.1,.16,.32,.37c.27,.28,.7,.65,1.31,.95,1.1,.53,1.55,3.18,1.19,3.58s-.31,1.61,.26,2.12"/><path class="cls-3" d="M13.21,16.49c.46,.53,1.05,.93,1.67,1.22,1.01,.59,1.28,1.79,1.4,2.85,.04,.34-.02,.84-.25,1.06-.14,.28-.16,.64-.12,.97,.04,.34,.14,.68,.39,.94-.53-.47-.73-1.29-.47-2.01,.12-.21,.17-.27,.19-.44,.05-.5-.06-1.02-.2-1.5-.18-.64-.47-1.33-1.02-1.66-.64-.34-1.19-.82-1.57-1.42h0Z"/></g><g><path class="cls-2" d="M13.53,16.87s.64,.57,3.08,.08c.2-.04,.41-.09,.64-.14,0,0,1.21-.57,.71-2.14"/><path class="cls-3" d="M13.53,16.87c1.18,.43,2.49,0,3.68-.2,.6-.29,.97-1.25,.74-2,.38,.78,.17,1.84-.66,2.27-1.2,.27-2.66,.64-3.77-.06h0Z"/></g><path class="cls-1" d="M16.61,16.94s1.93-.59,1.87,1.45"/></g></g><path class="cls-5" d="M11.43,26.77l-6.65-5.18c-.45-.35-.58-.94-.28-1.32h0c.29-.38,.9-.4,1.35-.05l7.54,4.29c.45,.35-.32,1.84-.61,2.21h0c-.29,.38-.9,.4-1.35,.05Z"/><rect class="cls-5" x="11.81" y="23.49" width="5.76" height="3.28" rx=".07" ry=".07" transform="translate(-2.2 1.42) rotate(-5.15)"/><rect class="cls-5" x="16.42" y="23.07" width="5.76" height="3.28" transform="translate(-2.14 1.83) rotate(-5.15)"/><path class="cls-5" d="M26.36,28.27l-4.01-1.99c-.65-.32-.91-1.11-.59-1.75l1.14-2.29c.32-.65,1.11-.91,1.75-.59l.62,.31,3.39,1.68c.65,.32,.91,1.11,.59,1.75l-1.14,2.29c-.32,.65-1.11,.91-1.75,.59Z"/><path class="cls-5" d="M25.5,22.07s-1.85-1.64-2.68-2.36-2.24-.9-5.16-.03-2.67,.88-4.98,1.01-1.89,1.48-1.3,1.71,5.3,.24,5.45,.29c0,0,.25,.23-.33,.3s-3.19,.36-4.18,.64,10.44,.69,10.44,.69l2.73-2.26Z"/></svg>